<?xml version="1.0" encoding="utf-8"?>
<!-- Generator: Adobe Illustrator 23.0.2, SVG Export Plug-In . SVG Version: 6.00 Build 0)  -->
<svg version="1.1" id="Layer_1" xmlns="http://www.w3.org/2000/svg" xmlns:xlink="http://www.w3.org/1999/xlink" x="0px" y="0px"
	 viewBox="0 0 560.9 602.6" style="enable-background:new 0 0 560.9 602.6;" xml:space="preserve">
<style type="text/css">
	.st0{fill:#D5EBF6;}
	.st1{fill:#A6C1D8;}
	.st2{fill:#FF6E80;}
	.st3{fill:#E3244C;}
	.st4{fill:#EAE8EA;}
	.st5{fill:#334151;}
	.st6{fill:#33669A;}
</style>
<g>
	<g>
		<path class="st0" d="M63.1,536v52.4c0,7.8,6.3,14.2,14.2,14.2h60.9c7.8,0,14.2-6.3,14.2-14.2V536H63.1z"/>
		<path class="st1" d="M94,588.4V536H63.1v52.4c0,7.8,6.3,14.2,14.2,14.2h30.9C100.3,602.6,94,596.2,94,588.4z"/>
	</g>
	<g>
		<path class="st0" d="M502.8,536v52.4c0,7.8-6.3,14.2-14.2,14.2h-60.9c-7.8,0-14.2-6.3-14.2-14.2V536H502.8z"/>
		<path class="st1" d="M444,588.4V536h-30.9v52.4c0,7.8,6.3,14.2,14.2,14.2h30.9C450.4,602.6,444,596.2,444,588.4z"/>
	</g>
	<rect x="85.6" y="73.4" class="st0" width="83.1" height="92.2"/>
	<rect x="85.6" y="64.4" class="st1" width="30.9" height="92.2"/>
	<path class="st2" d="M177.4,35.8H76.8c-7.3,0-13.2,5.9-13.2,13.2v26.8c0,7.3,5.9,13.2,13.2,13.2h100.6c7.3,0,13.2-5.9,13.2-13.2V49
		C190.6,41.7,184.7,35.8,177.4,35.8z"/>
	<path class="st3" d="M94.6,75.7V49c0-7.3,5.9-13.2,13.2-13.2H76.8c-7.3,0-13.2,5.9-13.2,13.2v26.8c0,7.3,5.9,13.2,13.2,13.2h30.9
		C100.4,88.9,94.6,83,94.6,75.7z"/>
	<g>
		<path class="st0" d="M532.2,83h-67.9c-13.4,0-24.3,10.9-24.3,24.3v54.9c0,22.9-18.6,41.5-41.5,41.5s-41.5-18.6-41.5-41.5v-54.9
			C356.9,48.2,405,0,464.2,0h67.9L532.2,83L532.2,83z"/>
	</g>
	<path class="st1" d="M356.9,101.9v54.7c0,22.9,18.6,41.5,41.5,41.5s41.5-18.6,41.5-41.5v-54.7H356.9z"/>
	
		<image style="overflow:visible;" width="512" height="512" id="database" xlink:href="../Downloads/database (1).png"  transform="matrix(1.0956 0 0 0.8633 0 133.3129)">
	</image>
	<g>
		<path class="st4" d="M183.3,284c-32.9,0-59.7,26.7-59.7,59.7c0,27.2,18.2,50.1,43,57.3l16.6-8.7L200,401c24.9-7.2,43-30.1,43-57.3
			C243,310.7,216.3,284,183.3,284z"/>
		<path class="st2" d="M190.1,336c-1.4-7.5-12.1-7.5-13.5,0l-9.9,65c5.3,1.5,10.8,2.4,16.6,2.4c5.8,0,11.3-0.8,16.6-2.4L190.1,336z"
			/>
		<path class="st5" d="M183.3,284c-2.6,0-5.2,0.2-7.7,0.5V303c0,4.3,3.5,7.7,7.7,7.7c4.3,0,7.7-3.5,7.7-7.7v-18.5
			C188.5,284.2,186,284,183.3,284z"/>
		<path class="st5" d="M133.1,311.6l10.7,10.7c1.5,1.5,3.5,2.3,5.5,2.3s4-0.8,5.5-2.3c3-3,3-7.9,0-10.9l-11.5-11.5
			c0,0-0.1-0.1-0.1-0.1C139.2,303.2,135.9,307.2,133.1,311.6z"/>
		<path class="st5" d="M223.6,299.7c0,0-0.1,0.1-0.1,0.1L212,311.3c-3,3-3,7.9,0,10.9c1.5,1.5,3.5,2.3,5.5,2.3c2,0,4-0.8,5.5-2.3
			l10.7-10.7C230.8,307.2,227.5,303.2,223.6,299.7z"/>
	</g>
	<circle class="st2" cx="312.2" cy="342.5" r="26.5"/>
	<circle class="st2" cx="413.6" cy="337.2" r="26.5"/>
	<g>
		<g>
			<path class="st6" d="M183.3,506.9c-4.3,0-7.7-3.5-7.7-7.7v-17.6c0-4.3,3.5-7.7,7.7-7.7c4.3,0,7.7,3.5,7.7,7.7v17.6
				C191.1,503.5,187.6,506.9,183.3,506.9z"/>
		</g>
		<g>
			<path class="st6" d="M377.6,506.9c-4.3,0-7.7-3.5-7.7-7.7v-17.6c0-4.3,3.5-7.7,7.7-7.7s7.7,3.5,7.7,7.7v17.6
				C385.3,503.5,381.9,506.9,377.6,506.9z"/>
		</g>
		<g>
			<path class="st6" d="M280.5,516.3c-11.6,0-22.4-4.8-29.8-13.2c-2.8-3.2-2.5-8.1,0.7-10.9c3.2-2.8,8.1-2.5,10.9,0.7
				c4.4,5.1,11,8,18.2,8s13.7-2.9,18.2-8c2.8-3.2,7.7-3.5,10.9-0.7c3.2,2.8,3.5,7.7,0.7,10.9C302.9,511.5,292,516.3,280.5,516.3z"/>
		</g>
	</g>
</g>
</svg>
